<?xml version="1.0" encoding="UTF-8" standalone="no"?>
<!-- Created with Inkscape (http://www.inkscape.org/) -->

<svg
   xmlns:dc="http://purl.org/dc/elements/1.1/"
   xmlns:cc="http://creativecommons.org/ns#"
   xmlns:rdf="http://www.w3.org/1999/02/22-rdf-syntax-ns#"
   xmlns:svg="http://www.w3.org/2000/svg"
   xmlns="http://www.w3.org/2000/svg"
   xmlns:sodipodi="http://sodipodi.sourceforge.net/DTD/sodipodi-0.dtd"
   xmlns:inkscape="http://www.inkscape.org/namespaces/inkscape"
   width="200"
   height="600"
   viewBox="0 0 200 600.00002"
   id="manhitloc"
   version="1.1"
   inkscape:version="0.91 r13725"
   sodipodi:docname="manhitloc.svg">
  <defs
     id="defs4" />
  <sodipodi:namedview
     id="namedview4813"
     pagecolor="#ffffff"
     bordercolor="#666666"
     borderopacity="1.0"
     inkscape:pageopacity="0.0"
     inkscape:pageshadow="2"
     inkscape:zoom="7.9195959"
     inkscape:cx="92.248498"
     inkscape:cy="551.40732"
     inkscape:document-units="px"
     inkscape:current-layer="mainhitloc"
     showgrid="false"
     units="px"
     inkscape:window-width="1680"
     inkscape:window-height="987"
     inkscape:window-x="-8"
     inkscape:window-y="-8"
     inkscape:window-maximized="1" />
  <metadata
     id="metadata7">
    <rdf:RDF>
      <cc:Work
         rdf:about="">
        <dc:format>image/svg+xml</dc:format>
        <dc:type
           rdf:resource="http://purl.org/dc/dcmitype/StillImage" />
        <dc:title></dc:title>
      </cc:Work>
    </rdf:RDF>
  </metadata>
  <g
     inkscape:label="Layer 1"
     inkscape:groupmode="layer"
     id="layer1"
     transform="translate(0,-452.36213)"
     style="display:inline"
     sodipodi:insensitive="true">
    <path
       style="fill:none;stroke:#000000;stroke-width:2;stroke-miterlimit:4;stroke-dasharray:none;stroke-opacity:1"
       d="m 59.498927,1046.1561 c -1.27894,-0.5445 -2.32534,-1.5174 -2.32534,-2.162 0,-0.6447 2.91837,-4.3262 6.48526,-8.1812 3.56689,-3.8551 7.81201,-9.4485 9.43361,-12.4299 3.81309,-7.0104 3.41824,-12.2318 -2.30932,-30.53755 -2.30848,-7.37806 -6.37767,-21.2755 -9.04267,-30.88319 l -4.84546,-17.4685 0.61936,-14.07316 c 0.37238,-8.46144 1.30877,-16.34113 2.34831,-19.76095 1.25915,-4.14232 1.8544,-11.02713 2.19054,-25.33677 0.5159,-21.96135 1.32303,-16.95172 -11.57982,-71.87363 -2.60568,-11.09129 -5.17898,-24.3543 -5.71844,-29.47335 -1.18278,-11.22359 -1.20125,-29.39502 -0.0399,-39.29781 3.22887,-27.53366 5.43767,-45.33483 6.28765,-50.67349 1.55475,-9.76531 1.23276,-31.24565 -0.5742,-38.30493 -1.80601,-7.05558 -6.63253,-17.28824 -8.40095,-17.81073 -3.69956,-1.09305 -6.54793,21.081 -6.55293,51.0135 -0.002,13.68855 -0.45984,27.41693 -1.01679,30.50751 -0.55696,3.09057 -2.15259,14.11753 -3.54586,24.50434 l -2.53321,18.88509 3.8791,6.45165 c 2.1335,3.5484 4.65927,8.43888 5.61282,10.86772 2.02966,5.16987 2.26869,15.84187 0.54698,24.42048 -1.32489,6.60139 -4.02172,8.91337 -10.38863,8.90616 -5.91974,-0.007 -9.87093,-3.37686 -13.89163,-11.84878 l -3.64087,-7.6716 1.25714,-7.79799 c 0.93539,-5.80225 0.96992,-9.32508 0.13491,-13.76486 -0.61723,-3.28176 -1.9254896,-16.08875 -2.9072696,-28.45994 -1.53097,-19.29153 -1.61995,-25.62098 -0.62513,-44.46858 0.63796,-12.08651 1.6513696,-23.60121 2.2520296,-25.5882 0.60067,-1.98699 1.12608,-12.92315 1.16758,-24.30259 0.0415,-11.37944 0.53503,-23.24941 1.09675,-26.37772 0.56172,-3.12832 1.36254,-11.73764 1.7796,-19.13183 0.6789,-12.0367 1.12539,-14.31002 4.26528,-21.71721 4.50612,-10.63023 9.78329,-19.64741 12.70321,-21.70616 2.8567,-2.01419 17.53611,-6.73305 20.94516,-6.73305 1.38591,0 8.33791,-2.89993 15.4489,-6.44429 l 12.92907,-6.4443 -1.8e-4,-5.707 c -3e-4,-9.39444 -2.70061,-21.03391 -6.13811,-26.4578 -4.31378,-6.80653 -5.53271,-10.89377 -4.25315,-14.26144 0.57141,-1.50389 1.5155,-2.73434 2.09798,-2.73434 0.64043,0 1.05907,-3.49106 1.05907,-8.8315 0,-10.59206 2.10418,-15.64887 8.18799,-19.67755 14.20262,-9.40494 34.426893,-6.25295 42.188093,6.5751 1.93522,3.19864 2.32188,5.3403 2.3263,12.88511 0.003,5.48538 0.42236,9.04884 1.06436,9.04884 0.58248,0 1.52658,1.23045 2.09798,2.73434 1.27956,3.36767 0.0607,7.45491 -4.25316,14.26144 -3.4376,5.42404 -6.14068,17.07548 -6.13364,26.43864 l 0.004,5.68784 12.78205,6.46346 c 7.03013,3.5549 13.95516,6.46345 15.38895,6.46345 3.04774,0 15.48667,3.70211 19.66328,5.85225 3.91314,2.01451 9.32076,10.77065 14.26052,23.09105 3.77004,9.40299 4.13243,11.1718 4.49204,21.92554 0.21515,6.43357 0.85964,14.48963 1.43222,17.90233 0.57257,3.4127 1.08066,15.27961 1.1291,26.3709 0.0571,13.07389 0.60733,22.71186 1.56459,27.40505 2.47212,12.12002 3.22387,52.2977 1.27709,68.25409 -3.68246,30.18246 -3.98622,34.89162 -2.71998,42.16759 1.20925,6.9485 1.19774,7.01766 -2.44916,14.70193 -5.21803,10.99481 -11.02715,14.08751 -19.67197,10.47314 -3.04311,-1.27232 -3.548,-2.08272 -4.61749,-7.41156 -0.6603,-3.29067 -1.20065,-9.29248 -1.20065,-13.33734 0,-6.28512 0.52899,-8.45884 3.63861,-14.95174 2.00124,-4.1786 4.56509,-8.89938 5.69743,-10.49065 l 2.05883,-2.89321 -3.63047,-25.47678 c -3.31343,-23.25199 -3.63083,-27.57122 -3.63463,-49.46103 -0.003,-16.45774 -0.49761,-27.0673 -1.57665,-33.80873 -1.79381,-11.20708 -3.31543,-16.54644 -4.71543,-16.54644 -1.67765,0 -5.00942,6.42295 -7.67204,14.79005 -2.19993,6.91314 -2.56634,10.02195 -2.55965,21.71721 0.004,7.50703 0.45834,16.44136 1.00898,19.85407 0.86779,5.37838 2.74976,20.53266 6.22876,50.15641 1.22005,10.38876 1.21314,28.35519 -0.0154,40.02291 -0.55104,5.23346 -4.61148,24.54626 -9.02318,42.91734 l -8.02126,33.40195 0.007,21.71721 c 0.005,17.92719 0.33156,22.80003 1.86942,27.92215 1.18908,3.96031 2.07763,11.29579 2.45631,20.27803 l 0.5933,14.07316 -4.85925,17.4685 c -2.6726,9.60769 -6.72458,23.51837 -9.00441,30.91256 -5.67616,18.40958 -6.04199,22.70358 -2.54378,29.85838 1.51519,3.0989 5.76404,8.8866 9.44188,12.8616 3.67784,3.975 6.68698,7.7512 6.68698,8.3916 0,2.5873 -5.75466,3.3343 -20.15293,2.6159 -7.95783,-0.397 -15.24539,-1.1267 -16.1946,-1.6215 -2.08543,-1.087 -4.33157,-7.4119 -3.53276,-9.948 0.31634,-1.0043 0.19974,-3.2221 -0.25911,-4.9285 -1.00219,-3.7269 0.151,-10.6014 2.65562,-15.8309 2.48727,-5.1933 2.09425,-28.55491 -0.88194,-52.42316 -2.00334,-16.06619 -2.08675,-18.98324 -0.96823,-33.86297 0.67317,-8.95526 0.93192,-16.75512 0.57498,-17.33308 -0.35693,-0.57789 -1.10809,-27.45543 -1.66923,-59.72788 -0.56092,-32.27246 -1.36624,-61.00404 -1.78938,-63.84796 -0.73075,-4.91133 -0.807653,-5.01243 -1.532763,-2.0149 -0.41987,1.73572 -1.16577,30.44218 -1.65753,63.7921 -0.49177,33.34993 -1.20057,61.13239 -1.57512,61.73882 -0.37455,0.60643 -0.11469,8.43152 0.57747,17.38893 1.15415,14.93623 1.078,17.74367 -0.91862,33.86694 -1.19739,9.66933 -2.45328,23.87122 -2.79084,31.55969 -0.57993,13.20857 -0.4705,14.36007 1.9852,20.88847 2.66938,7.0965 3.07623,10.5892 2.38325,20.4596 -0.45134,6.4287 -1.97947,9.9617 -4.63447,10.7148 -3.80919,1.0806 -30.82793,1.6387 -33.07258,0.6833 z"
       id="base"
       inkscape:connector-curvature="0" />
  </g>
  <g
     inkscape:groupmode="layer"
     id="mainhitloc"
     inkscape:label="hitloc-main"
     style="display:inline">
    <path
       style="opacity:0.91000001;fill:#8ae234;stroke:#000000;stroke-width:1;stroke-opacity:1"
       d="m 100.94922,5.5175781 c -6.518084,-0.130857 -13.282921,1.6186962 -19.052736,5.4394529 -6.08381,4.02868 -8.1875,9.085675 -8.1875,19.677735 0,5.34044 -0.418163,8.830078 -1.058593,8.830078 -0.58248,0 -1.526247,1.230485 -2.097657,2.734375 -1.27956,3.36767 -0.06183,7.455188 4.251954,14.261719 2.098754,3.311538 3.915146,8.946894 5.017578,14.966796 l 40.482424,0 c 1.10158,-6.01619 2.91683,-11.655207 5.01562,-14.966796 4.31386,-6.806531 5.53347,-10.894049 4.25391,-14.261719 -0.5714,-1.50389 -1.51518,-2.734375 -2.09766,-2.734375 -0.642,0 -1.06145,-3.563448 -1.06445,-9.048828 -0.004,-7.54481 -0.39095,-9.686126 -2.32617,-12.884766 C 119.47772,9.9145952 110.47565,5.7088306 100.94922,5.5175781 Z"
       id="head"
       inkscape:connector-curvature="0" />
    <path
       style="opacity:0.91000001;fill:#8ae234;stroke:#000000;stroke-width:1;stroke-opacity:1"
       d="m 41.416016,104.2832 c -4.285181,1.39645 -8.417748,2.99383 -9.794922,3.96485 -2.91992,2.05875 -8.197005,11.07486 -12.703125,21.70507 -3.13989,7.40719 -3.586725,9.68205 -4.265625,21.71876 -0.41706,7.39419 -1.217577,16.00253 -1.779297,19.13085 -0.56172,3.12831 -1.056156,14.99947 -1.097656,26.37891 -0.0415,11.37944 -0.567299,22.31379 -1.167969,24.30078 -0.60066,1.98699 -1.6139934,13.50334 -2.2519532,25.58985 -0.99482,18.8476 -0.90597,25.17722 0.625,44.46875 0.523947,6.60214 1.1339452,13.20879 1.6894532,18.54492 l 17.755859,0 2.486328,-18.53321 c 1.39327,-10.38681 2.987962,-21.41529 3.544922,-24.50585 0.55695,-3.09058 1.015578,-16.81731 1.017578,-30.50586 0.0047,-28.26115 2.544033,-49.59707 5.941407,-50.97266 l 0,-81.28516 z"
       id="arm-right"
       inkscape:connector-curvature="0" />
    <path
       style="opacity:0.91000001;fill:#8ae234;stroke:#000000;stroke-width:1;stroke-opacity:1"
       d="m 158.08984,104.04492 0,81.29688 c 0.0928,-0.0321 0.18486,-0.0606 0.26954,-0.0606 1.39999,0 2.92103,5.3398 4.71484,16.54687 1.07904,6.74145 1.57512,17.35086 1.57812,33.8086 0.004,21.88981 0.32134,26.20895 3.63477,49.46094 l 3.55859,24.98828 17.24024,0 c 0.521,-4.7164 1.20509,-10.46987 2.0957,-17.76953 1.94678,-15.95639 1.19478,-56.13389 -1.27734,-68.25391 -0.95726,-4.69319 -1.50736,-14.33236 -1.56446,-27.40625 -0.0484,-11.09129 -0.55633,-22.95839 -1.1289,-26.37109 -0.57258,-3.4127 -1.21845,-11.46878 -1.4336,-17.90235 -0.35961,-10.75374 -0.72214,-12.52084 -4.49218,-21.92383 -4.93976,-12.3204 -10.34663,-21.07728 -14.25977,-23.09179 -1.85892,-0.95699 -5.35964,-2.21365 -8.93555,-3.32227 z"
       id="arm-left"
       inkscape:connector-curvature="0" />
    <path
       style="color:#000000;clip-rule:nonzero;display:inline;overflow:visible;visibility:visible;opacity:0.91000001;isolation:auto;mix-blend-mode:normal;color-interpolation:sRGB;color-interpolation-filters:linearRGB;solid-color:#000000;solid-opacity:1;fill:#8ae234;fill-opacity:1;fill-rule:nonzero;stroke:#000000;stroke-width:1;stroke-linecap:butt;stroke-linejoin:miter;stroke-miterlimit:4;stroke-dasharray:none;stroke-dashoffset:0;stroke-opacity:1;color-rendering:auto;image-rendering:auto;shape-rendering:auto;text-rendering:auto;enable-background:accumulate"
       d="M 80.798828 88.357422 L 80.798828 88.626953 L 67.771484 95.070312 C 60.6056 98.614672 53.597781 101.51562 52.201172 101.51562 C 50.48809 101.51562 45.950389 102.68698 41.474609 104.11328 L 41.474609 185.51562 C 41.510219 185.52163 41.546259 185.51664 41.582031 185.52734 C 43.364102 186.04983 48.226923 196.28231 50.046875 203.33789 C 50.757166 206.09154 51.231516 211.05557 51.462891 216.64648 L 148.54102 216.64648 C 148.67459 209.01249 149.23422 205.82639 151.08008 200.07031 C 153.39675 192.8461 156.21612 187.08346 158.03125 185.64062 L 158.03125 103.88867 C 153.70398 102.57785 149.36815 101.51563 147.72852 101.51562 C 146.28367 101.51562 139.3051 98.605681 132.2207 95.050781 L 119.3418 88.587891 L 119.3418 88.357422 L 80.798828 88.357422 z M 51.462891 216.6543 C 51.515618 217.92978 51.551813 219.23858 51.578125 220.5625 C 51.551516 219.24006 51.515583 217.92894 51.462891 216.6543 z M 51.607422 222.52148 C 51.620045 223.81452 51.624284 225.10914 51.611328 226.39648 C 51.623677 225.10861 51.620571 223.8152 51.607422 222.52148 z M 51.582031 228.05469 C 51.558272 229.30237 51.523577 230.53209 51.474609 231.72852 C 51.523108 230.52923 51.558893 229.30543 51.582031 228.05469 z M 51.417969 233.10938 C 51.403853 233.3897 51.388641 233.66195 51.373047 233.9375 C 51.388567 233.66107 51.403944 233.3906 51.417969 233.10938 z M 51.238281 236.00781 C 51.219421 236.26141 51.199963 236.51408 51.179688 236.76172 C 51.199909 236.51356 51.219491 236.26194 51.238281 236.00781 z M 51.007812 238.60547 C 50.979183 238.88087 50.952558 239.16683 50.921875 239.43164 C 50.952653 239.16566 50.979126 238.88211 51.007812 238.60547 z M 149.51758 241.64258 C 150.17728 246.64651 150.64403 250.35445 151.04102 253.58008 C 150.6447 250.35868 150.17431 246.62389 149.51758 241.64258 z M 49.544922 249.48047 C 49.493886 249.8627 49.458414 250.14986 49.410156 250.51562 C 49.459139 250.14501 49.493071 249.86818 49.544922 249.48047 z M 151.32031 255.84375 C 151.63446 258.45642 151.87045 260.5251 152.0293 262.03711 C 151.86899 260.51379 151.6343 258.4547 151.32031 255.84375 z M 152.1543 263.28516 C 152.26255 264.3952 152.34732 265.33696 152.37891 265.8457 C 152.34531 265.3158 152.26702 264.43395 152.1543 263.28516 z M 152.39648 266.07812 C 152.42817 266.65659 152.41969 266.8894 152.4043 266.95117 C 152.42016 266.88747 152.43212 266.70317 152.39648 266.07812 z M 47.734375 266.17969 C 47.725358 266.68965 47.74069 266.8031 47.751953 266.85547 C 47.742297 266.81057 47.733729 266.53051 47.734375 266.17969 z "
       id="torso" />
    <path
       style="opacity:0.91000001;fill:#8ae234;stroke:#000000;stroke-width:1;stroke-opacity:1"
       d="m 131.55078,330.79492 c -8.70323,12.33463 -20.71542,27.13892 -29.75781,33.40235 0.25675,10.20559 0.51291,21.73769 0.73242,34.36718 0.56114,32.27245 1.31104,59.15063 1.66797,59.72852 0.35694,0.57796 0.099,8.37677 -0.57422,17.33203 -1.11852,14.87973 -1.03459,17.79709 0.96875,33.86328 2.84501,22.81624 3.32698,45.15847 1.19141,51.6211 l 18.79882,0 c 0.10775,-4.43428 1.6174,-10.31093 4.78907,-20.59766 2.27983,-7.39419 6.33326,-21.30442 9.00586,-30.91211 l 4.85937,-17.46875 -0.59375,-14.07227 c -0.37868,-8.98224 -1.26795,-16.31703 -2.45703,-20.27734 -1.53786,-5.12212 -1.86414,-9.99664 -1.86914,-27.92383 l -0.006,-21.7168 8.01953,-33.40234 c 4.4117,-18.37108 8.4724,-37.68255 9.02344,-42.91601 0.034,-0.32262 0.0577,-0.69539 0.0898,-1.02735 l -23.88867,0 z m -30.81445,3.92188 c 0.0438,0.29434 0.0952,1.0274 0.14648,1.85156 -0.0517,-0.86161 -0.10234,-1.55492 -0.14648,-1.85156 z m 0.45312,8.89843 c 0.0179,0.48249 0.0384,1.20534 0.0566,1.72266 -0.0186,-0.5462 -0.0383,-1.21282 -0.0566,-1.72266 z"
       id="leg-left"
       inkscape:connector-curvature="0" />
    <path
       style="opacity:0.91000001;fill:#8ae234;stroke:#000000;stroke-width:1;stroke-opacity:1"
       d="m 44.685547,330.79492 c 0.02566,0.26189 0.04345,0.56346 0.07031,0.81836 0.53946,5.11905 3.111117,18.38332 5.716797,29.47461 12.90285,54.92191 12.095978,49.9117 11.580078,71.87305 -0.33614,14.30964 -0.930303,21.19362 -2.189453,25.33594 -1.03954,3.41982 -1.977229,11.30027 -2.349609,19.76171 l -0.619141,14.07227 4.845703,17.46875 c 2.665,9.60769 6.734489,23.50475 9.042969,30.88281 3.11254,9.94793 4.638092,16.01976 4.78125,20.62696 l 18.958985,0 c -2.138383,-5.78719 -2.238636,-7.46529 -1.685547,-20.0625 0.33756,-7.68849 1.593625,-21.88927 2.791015,-31.5586 1.99662,-16.12327 2.072119,-18.93096 0.917969,-33.86719 -0.69216,-8.95741 -0.950722,-16.78224 -0.576172,-17.38867 0.37455,-0.60643 1.082449,-28.38835 1.574219,-61.73828 0.17591,-11.92981 0.387058,-22.67299 0.601562,-32.39258 C 89.09011,357.58403 77.1339,343.01388 68.455076,330.79492 l -23.769531,0 z m 55.091797,0.006 c -0.05835,0.0863 -0.128568,0.2911 -0.197266,0.50781 0.07008,-0.21862 0.137695,-0.4202 0.197266,-0.50781 z m -0.574219,1.90039 c -0.04424,0.18291 -0.09382,0.78592 -0.144531,1.56836 0.0505,-0.7484 0.100538,-1.38649 0.144531,-1.56836 z m -0.208984,2.66602 c -0.01,0.19101 -0.02112,0.43271 -0.03125,0.64258 0.01,-0.19773 0.02146,-0.46251 0.03125,-0.64258 z M 98.75,341.45898 c -0.04324,1.26392 -0.08804,2.7869 -0.132812,4.2793 0.04446,-1.43587 0.08987,-3.0695 0.132812,-4.2793 z"
       id="leg-right"
       inkscape:connector-curvature="0" />
    <path
       style="color:#000000;clip-rule:nonzero;display:inline;overflow:visible;visibility:visible;opacity:0.91000001;isolation:auto;mix-blend-mode:normal;color-interpolation:sRGB;color-interpolation-filters:linearRGB;solid-color:#000000;solid-opacity:1;fill:#8ae234;fill-opacity:1;fill-rule:nonzero;stroke:#000000;stroke-width:1;stroke-linecap:butt;stroke-linejoin:miter;stroke-miterlimit:4;stroke-dasharray:none;stroke-dashoffset:0;stroke-opacity:1;color-rendering:auto;image-rendering:auto;shape-rendering:auto;text-rendering:auto;enable-background:accumulate"
       d="m 100,317.41016 a 34.092648,24.45244 0 0 0 -31.007812,14.3457 c 8.631338,12.06177 20.28043,26.17436 29.154296,32.56055 0.165619,-7.50824 0.334101,-13.88193 0.494141,-19.11524 a 7.5130095,8.9651041 0 0 0 1.359375,0.1543 7.5130095,8.9651041 0 0 0 1.23633,-0.125 c 0.17517,5.09149 0.36355,11.58616 0.55469,19.18164 8.85811,-6.1352 20.56053,-20.46249 29.21679,-32.64063 A 34.092648,24.45244 0 0 0 100,317.41016 Z"
       id="groin"
       inkscape:connector-curvature="0" />
    <path
       style="color:#000000;clip-rule:nonzero;display:inline;overflow:visible;visibility:visible;opacity:0.91000001;isolation:auto;mix-blend-mode:normal;color-interpolation:sRGB;color-interpolation-filters:linearRGB;solid-color:#000000;solid-opacity:1;fill:#8ae234;fill-opacity:1;fill-rule:nonzero;stroke:#000000;stroke-width:1;stroke-linecap:butt;stroke-linejoin:miter;stroke-miterlimit:4;stroke-dasharray:none;stroke-dashoffset:0;stroke-opacity:1;color-rendering:auto;image-rendering:auto;shape-rendering:auto;text-rendering:auto;enable-background:accumulate"
       d="M 51.462891 216.64648 C 51.824671 225.3885 51.580602 235.68647 50.625 241.64258 C 47.419899 264.23772 47.70295 266.62763 47.751953 266.85547 C 46.866179 274.14453 45.884972 282.33832 44.714844 292.31641 C 44.377289 295.19472 44.152621 298.80402 44.015625 302.69727 C 44.013225 302.76487 44.010213 302.83261 44.007812 302.90039 C 43.959333 304.31792 43.924592 305.75708 43.902344 307.24023 C 43.897744 307.52801 43.896178 307.81601 43.892578 308.10547 C 43.878678 309.31327 43.869827 310.51687 43.873047 311.74219 C 43.874247 312.49349 43.882945 313.23795 43.890625 313.99023 C 43.899425 314.78138 43.905975 315.56433 43.921875 316.35156 C 43.943635 317.47756 43.977292 318.57978 44.013672 319.68555 C 44.029812 320.16578 44.04363 320.64477 44.0625 321.11914 C 44.11113 322.36324 44.172644 323.56271 44.240234 324.75195 C 44.260304 325.10222 44.277148 325.45849 44.298828 325.80273 C 44.379448 327.09073 44.474485 328.31011 44.578125 329.49609 C 44.592215 329.65729 44.600724 329.84101 44.615234 330 L 44.619141 330 C 44.650941 330.34801 44.675144 330.73532 44.708984 331.07227 L 68.650391 331.07227 C 68.783662 331.25937 68.93165 331.45641 69.066406 331.64453 A 34.092648 24.45244 0 0 1 100 317.41016 A 34.092648 24.45244 0 0 1 130.92969 331.66211 C 131.06782 331.46797 131.22085 331.26529 131.35742 331.07227 L 155.41406 331.07227 C 155.44776 330.73214 155.47231 330.3494 155.50391 330 L 155.50781 330 C 155.52451 329.81502 155.53458 329.60544 155.55078 329.41797 C 155.65495 328.21135 155.75106 326.97573 155.83203 325.68164 C 155.85133 325.37451 155.86677 325.05927 155.88477 324.74805 C 155.95517 323.52451 156.01811 322.28919 156.06836 321.01562 C 156.08986 320.47929 156.10505 319.9392 156.12305 319.39648 C 156.15595 318.38079 156.18663 317.37003 156.20703 316.33984 C 156.22443 315.49176 156.23514 314.64875 156.24414 313.79688 C 156.25114 313.08907 156.25671 312.38849 156.25781 311.68164 C 156.26081 310.57069 156.25379 309.47749 156.24219 308.37891 C 156.23719 307.92529 156.23036 307.47736 156.22266 307.02734 C 156.20096 305.69161 156.1685 304.39029 156.125 303.10156 C 156.12 302.96469 156.11438 302.82957 156.10938 302.69336 C 156.05638 301.20941 155.99043 299.78123 155.9082 298.39648 C 155.76654 296.01082 155.59402 293.74691 155.36523 291.79883 C 154.17942 281.70153 153.24133 273.86488 152.4043 266.95117 C 152.46816 266.69467 152.47722 264.09157 149.51758 241.64258 C 148.96269 238.22987 148.50404 229.29609 148.5 221.78906 C 148.49883 219.83161 148.51417 218.18104 148.54102 216.64648 L 51.462891 216.64648 z "
       id="abdomen" />
    <path
       style="opacity:0.91000001;fill:#8ae234;fill-opacity:1;stroke:#000000;stroke-width:1;stroke-opacity:1"
       d="m 79.880859,71.710938 c 0.671343,3.751667 1.062386,7.641494 1.0625,11.208984 l 0,5.458984 38.248051,0 -0.004,-5.478515 c -0.003,-3.555634 0.38781,-7.440184 1.05859,-11.189453 l -40.365231,0 z"
       id="neck"
       inkscape:connector-curvature="0" />
    <ellipse
       style="color:#000000;clip-rule:nonzero;display:inline;overflow:visible;visibility:visible;opacity:0.91000001;isolation:auto;mix-blend-mode:normal;color-interpolation:sRGB;color-interpolation-filters:linearRGB;solid-color:#000000;solid-opacity:1;fill:#8ae234;fill-opacity:1;fill-rule:nonzero;stroke:#000000;stroke-width:1;stroke-linecap:butt;stroke-linejoin:miter;stroke-miterlimit:4;stroke-dasharray:none;stroke-dashoffset:0;stroke-opacity:1;color-rendering:auto;image-rendering:auto;shape-rendering:auto;text-rendering:auto;enable-background:accumulate"
       id="face"
       cx="-100"
       cy="-53.128662"
       rx="21.465742"
       ry="29.673231"
       transform="scale(-1,-1)" />
    <ellipse
       style="color:#000000;clip-rule:nonzero;display:inline;overflow:visible;visibility:visible;opacity:0.725;isolation:auto;mix-blend-mode:normal;color-interpolation:sRGB;color-interpolation-filters:linearRGB;solid-color:#000000;solid-opacity:1;fill:#729fcf;fill-opacity:1;fill-rule:nonzero;stroke:#0000ff;stroke-width:1;stroke-linecap:butt;stroke-linejoin:miter;stroke-miterlimit:4;stroke-dasharray:none;stroke-dashoffset:0;stroke-opacity:1;color-rendering:auto;image-rendering:auto;shape-rendering:auto;text-rendering:auto;enable-background:accumulate"
       id="eye-right"
       cx="86.973984"
       cy="48"
       rx="6.3134532"
       ry="3.7880721" />
    <ellipse
       style="color:#000000;clip-rule:nonzero;display:inline;overflow:visible;visibility:visible;opacity:0.725;isolation:auto;mix-blend-mode:normal;color-interpolation:sRGB;color-interpolation-filters:linearRGB;solid-color:#000000;solid-opacity:1;fill:#729fcf;fill-opacity:1;fill-rule:nonzero;stroke:#0000ff;stroke-width:1;stroke-linecap:butt;stroke-linejoin:miter;stroke-miterlimit:4;stroke-dasharray:none;stroke-dashoffset:0;stroke-opacity:1;color-rendering:auto;image-rendering:auto;shape-rendering:auto;text-rendering:auto;enable-background:accumulate"
       id="eye-left"
       cx="113.02602"
       cy="48"
       rx="6.3134532"
       ry="3.7880721" />
    <path
       style="color:#000000;clip-rule:nonzero;display:inline;overflow:visible;visibility:visible;opacity:1;isolation:auto;mix-blend-mode:normal;color-interpolation:sRGB;color-interpolation-filters:linearRGB;solid-color:#000000;solid-opacity:1;fill:#8ae234;fill-opacity:1;fill-rule:nonzero;stroke:#000000;stroke-width:1;stroke-linecap:butt;stroke-linejoin:miter;stroke-miterlimit:4;stroke-dasharray:none;stroke-dashoffset:0;stroke-opacity:1;color-rendering:auto;image-rendering:auto;shape-rendering:auto;text-rendering:auto;enable-background:accumulate"
       d="m 75.564453,561.10938 c 0.120275,3.87076 -0.731722,6.71138 -2.472656,9.9121 -1.6216,2.9814 -5.866704,8.57459 -9.433594,12.42969 -3.56689,3.855 -6.484375,7.53694 -6.484375,8.18164 0,0.6446 1.045279,1.61761 2.324219,2.16211 l 0.002,0 c 2.24465,0.9554 29.263076,0.39701 33.072266,-0.68359 2.655,-0.7531 4.183425,-4.28615 4.634765,-10.71485 0.69298,-9.8704 0.286568,-13.36443 -2.382812,-20.46093 -0.11366,-0.30216 -0.197005,-0.54532 -0.300781,-0.82617 l -18.958985,0 z"
       id="foot-right"
       inkscape:connector-curvature="0" />
    <path
       style="color:#000000;clip-rule:nonzero;display:inline;overflow:visible;visibility:visible;opacity:1;isolation:auto;mix-blend-mode:normal;color-interpolation:sRGB;color-interpolation-filters:linearRGB;solid-color:#000000;solid-opacity:1;fill:#8ae234;fill-opacity:1;fill-rule:nonzero;stroke:#000000;stroke-width:1;stroke-linecap:butt;stroke-linejoin:miter;stroke-miterlimit:4;stroke-dasharray:none;stroke-dashoffset:0;stroke-opacity:1;color-rendering:auto;image-rendering:auto;shape-rendering:auto;text-rendering:auto;enable-background:accumulate"
       d="m 105.7793,561.10938 c -0.0985,0.29797 -0.20092,0.57383 -0.31055,0.80273 -2.50462,5.2295 -3.65649,12.10318 -2.6543,15.83008 0.45885,1.7064 0.57416,3.92343 0.25782,4.92773 -0.79881,2.5361 1.44777,8.86222 3.5332,9.94922 0.94921,0.4948 8.23748,1.22409 16.19531,1.62109 14.39827,0.7184 20.15235,-0.0279 20.15234,-2.61523 0,-0.6404 -3.00963,-4.41758 -6.6875,-8.39258 -3.67784,-3.975 -7.92621,-9.76243 -9.4414,-12.86133 -1.54352,-3.15691 -2.33117,-5.76022 -2.2461,-9.26171 l -18.79882,0 z"
       id="foot-left"
       inkscape:connector-curvature="0" />
    <path
       style="display:inline;opacity:0.91000001;fill:#8ae234;stroke:#000000;stroke-width:1;stroke-opacity:1"
       d="m 10.669922,310.08594 c 0.485411,4.66279 0.930917,8.38368 1.21875,9.91406 0.83501,4.43978 0.800624,7.96337 -0.134766,13.76562 l -1.257812,7.79688 3.640625,7.67188 c 4.0207,8.47192 7.972838,11.8426 13.892578,11.8496 6.36691,0.007 9.063782,-2.30486 10.388672,-8.90625 1.72171,-8.57861 1.482785,-19.252 -0.546875,-24.42187 -0.95355,-2.42884 -3.479782,-7.31879 -5.613282,-10.86719 l -3.878906,-6.45117 0.04687,-0.35156 -17.755859,0 z"
       id="hand-right"
       inkscape:connector-curvature="0" />
    <path
       style="display:inline;opacity:0.91000001;fill:#8ae234;stroke:#000000;stroke-width:1;stroke-opacity:1"
       d="m 171.8457,310.08594 0.0703,0.48828 -2.0586,2.89258 c -1.13234,1.59127 -3.69602,6.31163 -5.69726,10.49023 -3.10962,6.4929 -3.63868,8.66801 -3.63868,14.95313 0,4.04486 0.54088,10.04526 1.20118,13.33593 1.06949,5.32884 1.57407,6.13979 4.61718,7.41211 8.64482,3.61437 14.45385,0.52216 19.67188,-10.47265 3.6469,-7.68427 3.65847,-7.75268 2.44922,-14.70117 -0.96,-5.51628 -1.00823,-9.61361 0.625,-24.39844 l -17.24024,0 z"
       id="hand-left"
       inkscape:connector-curvature="0" />
    <path
       style="color:#000000;clip-rule:nonzero;display:inline;overflow:visible;visibility:visible;opacity:0.725;isolation:auto;mix-blend-mode:normal;color-interpolation:sRGB;color-interpolation-filters:linearRGB;solid-color:#000000;solid-opacity:1;fill:#729fcf;fill-opacity:1;fill-rule:nonzero;stroke:#0000ff;stroke-width:1;stroke-linecap:butt;stroke-linejoin:miter;stroke-miterlimit:4;stroke-dasharray:none;stroke-dashoffset:0;stroke-opacity:1;color-rendering:auto;image-rendering:auto;shape-rendering:auto;text-rendering:auto;enable-background:accumulate"
       d="m 136.75828,352.27821 c 0.31953,-0.83678 0.63077,-5.12825 0.49164,-6.77913 l -0.11598,-1.37629 -1.1805,-1.75237 c -0.64927,-0.96381 -1.40069,-2.0109 -1.66984,-2.32688 -0.82226,-0.96534 -1.0841,-1.04773 -3.35184,-1.05473 -1.92344,-0.006 -2.01626,-0.0195 -2.56863,-0.37593 -0.70612,-0.45559 -1.00961,-0.87445 -1.00961,-1.3934 0,-0.59622 0.34333,-1.05787 1.35582,-1.82304 0.50324,-0.38033 1.5712,-1.20284 2.37323,-1.8278 1.61636,-1.25951 1.93661,-1.42227 2.79853,-1.42227 0.68109,0 1.20068,0.34076 1.54747,1.01489 0.40582,0.78887 1.01607,1.43488 1.71825,1.81892 0.59059,0.32302 0.81352,0.36975 1.53857,0.32246 0.46635,-0.0304 1.09564,-0.17734 1.39841,-0.3265 0.51356,-0.25301 0.5609,-0.32688 0.70559,-1.10101 0.31161,-1.66724 0.76136,-2.2518 2.02199,-2.628 2.61147,-0.77933 4.34516,0.6858 4.72188,3.9904 0.0627,0.55011 0.19613,0.93326 0.41669,1.19667 0.17844,0.21311 0.52529,0.81361 0.77076,1.33445 0.89874,1.90694 0.48764,3.89578 -1.09115,5.27883 -0.4062,0.35584 -0.91936,0.92704 -1.14035,1.26933 -0.80495,1.24676 -1.33525,4.25788 -1.17125,6.65055 l 0.0909,1.32598 -3.13204,0.0916 c -4.86566,0.1423 -5.60813,0.12794 -5.51852,-0.10673 z m -26.6575,-45.45819 c 1.57537,-0.70521 2.1424,-1.13344 4.43817,-3.35175 2.95323,-2.85361 4.88867,-4.15835 7.37841,-4.97403 2.6542,-0.86955 5.27826,-0.86971 8.3951,-5.5e-4 3.97662,1.10897 8.10716,3.39108 10.83731,5.98757 3.25049,3.09136 4.6859,6.23999 5.00053,10.96883 0.16424,2.46858 -0.45154,4.09799 -2.14366,5.67233 -1.12337,1.04517 -3.05389,2.06673 -5.16145,2.73124 -2.13858,0.67429 -2.45017,0.80747 -3.17222,1.35587 -1.51314,1.14925 -1.70854,2.27282 -0.61328,3.52638 0.35939,0.41133 0.40584,0.53905 0.28118,0.77312 -0.17965,0.33732 -1.16317,0.64589 -2.66835,0.83716 l -1.08057,0.1373 -1.05261,1.08613 c -2.30612,2.37951 -4.19813,3.25918 -5.47872,2.54728 -0.23924,-0.13299 -0.75406,-0.50499 -1.14405,-0.82664 -0.99508,-0.82073 -1.59621,-0.98011 -2.55324,-0.67695 -0.94258,0.29858 -2.40847,1.28603 -3.91877,2.63973 -1.24999,1.12039 -2.30734,1.7168 -3.66691,2.06835 -1.55668,0.40253 -3.36721,0.21755 -4.75338,-0.48562 -2.01694,-1.02315 -1.44019,-2.11117 1.60788,-3.03321 5.47151,-1.65513 7.61896,-2.69704 9.81986,-4.7644 2.22307,-2.08819 3.1882,-4.23044 3.18327,-7.06575 -0.005,-3.19535 -0.98781,-5.33254 -2.86552,-6.23484 -0.65129,-0.31297 -0.95981,-0.3735 -1.88014,-0.36887 -2.01709,0.0101 -4.02678,0.76614 -7.88179,2.96501 z"
       id="pelvis"
       inkscape:connector-curvature="0"
       sodipodi:nodetypes="sscsssssssssssssssssssscsscsscsssssssscsssssssssssscc" />
    <path
       style="color:#000000;clip-rule:nonzero;display:inline;overflow:visible;visibility:visible;opacity:0.725;isolation:auto;mix-blend-mode:normal;color-interpolation:sRGB;color-interpolation-filters:linearRGB;solid-color:#000000;solid-opacity:1;fill:#729fcf;fill-opacity:1;fill-rule:nonzero;stroke:#0000ff;stroke-width:1;stroke-linecap:butt;stroke-linejoin:miter;stroke-miterlimit:4;stroke-dasharray:none;stroke-dashoffset:0;stroke-opacity:1;color-rendering:auto;image-rendering:auto;shape-rendering:auto;text-rendering:auto;enable-background:accumulate"
       d="m 88.49583,159.45096 c -0.28358,0 -0.61906,0.10358 -0.74584,0.23035 -0.69723,0.69724 0.19467,2.11493 3.02649,4.80967 l 2.07131,1.97114 0.08254,1.82482 c 0.07251,1.60431 0.147825,1.92257 0.622405,2.63444 0.351615,0.52741 0.880415,0.97945 1.51681,1.29659 0.95069,0.47379 1.083675,0.48696 4.935345,0.48696 3.88671,0 3.97675,-0.009 4.96949,-0.50385 1.58107,-0.78788 2.01225,-1.59505 2.10658,-3.9434 0.0716,-1.78141 0.10754,-1.9235 0.58188,-2.29153 1.09805,-0.85196 3.76063,-3.58449 4.27918,-4.39173 0.83639,-1.302 0.67078,-2.12346 -0.42807,-2.12346 -0.80131,0 -3.35583,1.38051 -5.31502,2.8723 l -1.77792,1.35361 -4.37447,0 -4.374475,0 -1.819195,-1.34874 c -2.04441,-1.51535 -4.58031,-2.87717 -5.357035,-2.87717 z m -0.214225,11.94501 c -0.14366,0.007 -0.262425,0.0385 -0.354155,0.096 -1.04771,0.65644 0.0231,2.42313 3.21482,5.30339 l 1.659375,1.49768 0.10692,1.89422 c 0.09211,1.63335 0.178135,2.00209 0.62466,2.67683 0.30958,0.46783 0.8846,0.97378 1.42977,1.25757 0.88459,0.46049 1.034785,0.47495 5.000244,0.48359 3.994971,0.009 4.110101,-0.002 5.041521,-0.47421 1.5027,-0.76147 1.9657,-1.62898 2.09645,-3.92727 l 0.10692,-1.87809 1.65713,-1.51381 c 3.2188,-2.9405 4.26203,-4.66542 3.21745,-5.3199 -0.73387,-0.45981 -3.20869,0.73494 -6.15991,2.97359 l -1.47704,1.12063 -4.44087,0 -4.4405,0 -1.47742,-1.12063 c -2.58231,-1.95882 -4.799725,-3.11843 -5.805365,-3.06963 z m 0.214225,12.89906 c -0.28358,0 -0.61906,0.10357 -0.74584,0.23035 -0.69723,0.69724 0.19467,2.11492 3.02649,4.80967 l 2.07131,1.97114 0.08254,1.82482 c 0.07251,1.60431 0.147825,1.92256 0.622405,2.63444 0.351615,0.52741 0.880415,0.97945 1.51681,1.29658 0.95069,0.4738 1.083675,0.48697 4.935345,0.48697 3.88671,0 3.97675,-0.009 4.96949,-0.50385 1.58107,-0.78788 2.01225,-1.59505 2.10658,-3.9434 0.0716,-1.78141 0.10754,-1.9235 0.58188,-2.29154 1.09805,-0.85196 3.76063,-3.58486 4.27918,-4.3921 0.83639,-1.302 0.67078,-2.12308 -0.42807,-2.12308 -0.80131,0 -3.35583,1.38051 -5.31502,2.87229 l -1.77792,1.35361 -4.37447,0 -4.374475,0 -1.819195,-1.34873 c -2.04441,-1.51535 -4.58031,-2.87717 -5.357035,-2.87717 z m -0.214225,11.94501 c -0.14366,0.007 -0.262425,0.0385 -0.354155,0.096 -1.04771,0.65644 0.0231,2.42313 3.21482,5.30339 l 1.659375,1.49767 0.10692,1.89423 c 0.09211,1.63335 0.178135,2.00209 0.62466,2.67683 0.30958,0.46783 0.8846,0.97378 1.42977,1.25757 0.88459,0.46049 1.034785,0.47495 5.000244,0.48359 3.994971,0.009 4.110101,-0.002 5.041521,-0.47421 1.5027,-0.76147 1.9657,-1.62897 2.09645,-3.92727 l 0.10692,-1.8781 1.65713,-1.5138 c 3.2188,-2.9405 4.26203,-4.66542 3.21745,-5.3199 -0.73387,-0.45982 -3.20869,0.73494 -6.15991,2.97359 l -1.47704,1.12063 -4.44087,0 -4.4405,0 -1.47742,-1.12063 c -2.58231,-1.95882 -4.799725,-3.11844 -5.805365,-3.06963 z"
       id="spine"
       inkscape:connector-curvature="0" />
    <ellipse
       style="color:#000000;clip-rule:nonzero;display:inline;overflow:visible;visibility:visible;opacity:0.725;isolation:auto;mix-blend-mode:normal;color-interpolation:sRGB;color-interpolation-filters:linearRGB;solid-color:#000000;solid-opacity:1;fill:#729fcf;fill-opacity:1;fill-rule:nonzero;stroke:#0000ff;stroke-width:1;stroke-linecap:butt;stroke-linejoin:miter;stroke-miterlimit:4;stroke-dasharray:none;stroke-dashoffset:0;stroke-opacity:1;color-rendering:auto;image-rendering:auto;shape-rendering:auto;text-rendering:auto;enable-background:accumulate"
       id="joint-right-wrist"
       cx="19.697973"
       cy="310.33875"
       rx="9.5964489"
       ry="4.7982244" />
    <ellipse
       style="color:#000000;clip-rule:nonzero;display:inline;overflow:visible;visibility:visible;opacity:0.725;isolation:auto;mix-blend-mode:normal;color-interpolation:sRGB;color-interpolation-filters:linearRGB;solid-color:#000000;solid-opacity:1;fill:#729fcf;fill-opacity:1;fill-rule:nonzero;stroke:#0000ff;stroke-width:1;stroke-linecap:butt;stroke-linejoin:miter;stroke-miterlimit:4;stroke-dasharray:none;stroke-dashoffset:0;stroke-opacity:1;color-rendering:auto;image-rendering:auto;shape-rendering:auto;text-rendering:auto;enable-background:accumulate"
       id="joint-left-wrist"
       cx="180.31224"
       cy="310.21246"
       rx="9.5964489"
       ry="4.7982244" />
    <ellipse
       style="color:#000000;clip-rule:nonzero;display:inline;overflow:visible;visibility:visible;opacity:0.725;isolation:auto;mix-blend-mode:normal;color-interpolation:sRGB;color-interpolation-filters:linearRGB;solid-color:#000000;solid-opacity:1;fill:#729fcf;fill-opacity:1;fill-rule:nonzero;stroke:#0000ff;stroke-width:1;stroke-linecap:butt;stroke-linejoin:miter;stroke-miterlimit:4;stroke-dasharray:none;stroke-dashoffset:0;stroke-opacity:1;color-rendering:auto;image-rendering:auto;shape-rendering:auto;text-rendering:auto;enable-background:accumulate"
       id="joint-left-ankle"
       cx="115.15739"
       cy="560.85663"
       rx="9.5964489"
       ry="4.7982244" />
    <ellipse
       style="color:#000000;clip-rule:nonzero;display:inline;overflow:visible;visibility:visible;opacity:0.725;isolation:auto;mix-blend-mode:normal;color-interpolation:sRGB;color-interpolation-filters:linearRGB;solid-color:#000000;solid-opacity:1;fill:#729fcf;fill-opacity:1;fill-rule:nonzero;stroke:#0000ff;stroke-width:1;stroke-linecap:butt;stroke-linejoin:miter;stroke-miterlimit:4;stroke-dasharray:none;stroke-dashoffset:0;stroke-opacity:1;color-rendering:auto;image-rendering:auto;shape-rendering:auto;text-rendering:auto;enable-background:accumulate"
       id="joint-right-ankle"
       cx="84.852814"
       cy="561.10919"
       rx="9.5964489"
       ry="4.7982244" />
    <ellipse
       style="color:#000000;clip-rule:nonzero;display:inline;overflow:visible;visibility:visible;opacity:0.725;isolation:auto;mix-blend-mode:normal;color-interpolation:sRGB;color-interpolation-filters:linearRGB;solid-color:#000000;solid-opacity:1;fill:#729fcf;fill-opacity:1;fill-rule:nonzero;stroke:#0000ff;stroke-width:1;stroke-linecap:butt;stroke-linejoin:miter;stroke-miterlimit:4;stroke-dasharray:none;stroke-dashoffset:0;stroke-opacity:1;color-rendering:auto;image-rendering:auto;shape-rendering:auto;text-rendering:auto;enable-background:accumulate"
       id="joint-left-knee"
       cx="121.47084"
       cy="455.80069"
       rx="14.394673"
       ry="9.5964489" />
    <ellipse
       style="color:#000000;clip-rule:nonzero;display:inline;overflow:visible;visibility:visible;opacity:0.725;isolation:auto;mix-blend-mode:normal;color-interpolation:sRGB;color-interpolation-filters:linearRGB;solid-color:#000000;solid-opacity:1;fill:#729fcf;fill-opacity:1;fill-rule:nonzero;stroke:#0000ff;stroke-width:1;stroke-linecap:butt;stroke-linejoin:miter;stroke-miterlimit:4;stroke-dasharray:none;stroke-dashoffset:0;stroke-opacity:1;color-rendering:auto;image-rendering:auto;shape-rendering:auto;text-rendering:auto;enable-background:accumulate"
       id="joint-right-knee"
       cx="78.286827"
       cy="455.92697"
       rx="14.394673"
       ry="9.5964489" />
    <ellipse
       style="color:#000000;clip-rule:nonzero;display:inline;overflow:visible;visibility:visible;opacity:0.725;isolation:auto;mix-blend-mode:normal;color-interpolation:sRGB;color-interpolation-filters:linearRGB;solid-color:#000000;solid-opacity:1;fill:#729fcf;fill-opacity:1;fill-rule:nonzero;stroke:#0000ff;stroke-width:1;stroke-linecap:butt;stroke-linejoin:miter;stroke-miterlimit:4;stroke-dasharray:none;stroke-dashoffset:0;stroke-opacity:1;color-rendering:auto;image-rendering:auto;shape-rendering:auto;text-rendering:auto;enable-background:accumulate"
       id="joint-left-elbow"
       cx="177.78685"
       cy="228.76897"
       rx="12.879444"
       ry="9.0913725" />
    <ellipse
       style="color:#000000;clip-rule:nonzero;display:inline;overflow:visible;visibility:visible;opacity:0.725;isolation:auto;mix-blend-mode:normal;color-interpolation:sRGB;color-interpolation-filters:linearRGB;solid-color:#000000;solid-opacity:1;fill:#729fcf;fill-opacity:1;fill-rule:nonzero;stroke:#0000ff;stroke-width:1;stroke-linecap:butt;stroke-linejoin:miter;stroke-miterlimit:4;stroke-dasharray:none;stroke-dashoffset:0;stroke-opacity:1;color-rendering:auto;image-rendering:auto;shape-rendering:auto;text-rendering:auto;enable-background:accumulate"
       id="joint-right-elbow"
       cx="21.738583"
       cy="227.50627"
       rx="12.879444"
       ry="9.0913725" />
    <path
       inkscape:connector-curvature="0"
       style="color:#000000;clip-rule:nonzero;display:inline;overflow:visible;visibility:visible;opacity:0.725;isolation:auto;mix-blend-mode:normal;color-interpolation:sRGB;color-interpolation-filters:linearRGB;solid-color:#000000;solid-opacity:1;fill:#729fcf;fill-opacity:1;fill-rule:nonzero;stroke:#0000ff;stroke-width:1;stroke-linecap:butt;stroke-linejoin:miter;stroke-miterlimit:4;stroke-dasharray:none;stroke-dashoffset:0;stroke-opacity:1;color-rendering:auto;image-rendering:auto;shape-rendering:auto;text-rendering:auto;enable-background:accumulate"
       id="vitals"
       d="m 109.50251,150.20582 c -0.64571,-0.72358 -2.258,-2.13421 -3.58288,-3.13473 -3.9255,-2.96446 -4.45976,-3.39347 -6.053598,-4.86109 -2.93834,-2.70563 -4.1862,-5.4239 -4.18193,-9.10967 0.002,-1.79924 0.12473,-2.49243 0.62859,-3.55299 0.85485,-1.79933 2.11408,-3.13638 3.723998,-3.95412 1.14026,-0.57918 1.70263,-0.8365 3.60677,-0.84702 1.99188,-0.011 2.41119,0.22123 3.58288,0.86493 1.42615,0.78348 2.89406,2.45792 3.19749,3.64737 l 0.18742,0.73464 0.46217,-1.01177 c 2.61169,-5.71748 10.94992,-5.63194 13.85167,0.1421 0.92051,1.83169 1.02157,5.74281 0.20531,7.94592 -1.06477,2.87388 -3.06468,5.06487 -7.68779,8.42234 -3.03192,2.20189 -6.46335,5.5334 -6.70222,6.00131 -0.27729,0.54317 -0.0132,0.0851 -1.23788,-1.28722 z" />
    <path
       inkscape:connector-curvature="0"
       style="color:#000000;clip-rule:nonzero;display:inline;overflow:visible;visibility:visible;opacity:0.725;isolation:auto;mix-blend-mode:normal;color-interpolation:sRGB;color-interpolation-filters:linearRGB;solid-color:#000000;solid-opacity:1;fill:#729fcf;fill-opacity:1;fill-rule:nonzero;stroke:#0000ff;stroke-width:1;stroke-linecap:butt;stroke-linejoin:miter;stroke-miterlimit:4;stroke-dasharray:none;stroke-dashoffset:0;stroke-opacity:1;color-rendering:auto;image-rendering:auto;shape-rendering:auto;text-rendering:auto;enable-background:accumulate"
       d="m 45.1875,138.87499 c -1.844523,0.015 -6.06048,0.33527 -10.28125,2.66211 -5.627692,3.10245 -11.142578,10.05025 -11.142578,23.08789 0,24.57867 -2.496094,41.04103 -2.496094,41.04103 l 4.94336,0.74804 c 0,0 2.552734,-16.87026 2.552734,-41.78907 0,-11.7111 4.335346,-16.38186 8.55664,-18.70898 4.221297,-2.32713 8.449219,-2.03321 8.449219,-2.03321 l 0.384766,-4.98437 c 0,0 -0.351956,-0.0284 -0.966797,-0.0234 z m 36.796875,170.9004 c 0,0 -5.15903,15.04266 -8.207031,47.55469 -1.540266,16.4295 0.144288,27.29392 2.142578,35.54492 1.998289,8.251 4.138425,13.71149 3.910156,19.64648 l 4.996094,0.19141 c 0.276808,-7.19699 -2.130824,-13.10223 -4.046875,-21.01367 -1.916051,-7.91144 -3.51363,-18.00698 -2.023438,-33.90234 3.012913,-32.13775 7.955078,-46.39063 7.955079,-46.39063 l -4.726563,-1.63086 z"
       id="vascular-limb" />
    <path
       style="color:#000000;clip-rule:nonzero;display:inline;overflow:visible;visibility:visible;opacity:0.725;isolation:auto;mix-blend-mode:normal;color-interpolation:sRGB;color-interpolation-filters:linearRGB;solid-color:#000000;solid-opacity:1;fill:#729fcf;fill-opacity:1;fill-rule:nonzero;stroke:#0000ff;stroke-width:1;stroke-linecap:butt;stroke-linejoin:miter;stroke-miterlimit:4;stroke-dasharray:none;stroke-dashoffset:0;stroke-opacity:1;color-rendering:auto;image-rendering:auto;shape-rendering:auto;text-rendering:auto;enable-background:accumulate"
       d="m 89.632812,79.105464 c -0.05713,1.151985 -0.193465,2.443206 -0.263671,3.791015 -0.0971,1.86402 -0.104825,3.916519 0.902343,5.908204 0.395916,0.782926 0.978848,1.483778 1.701172,2.08789 l -3.669922,0 0,4.732422 22.857426,0 0,-4.732422 -4.21289,0 c 0.20875,-0.194416 0.41126,-0.395927 0.60156,-0.607422 2.50788,-2.787299 3.5612,-6.888756 2.40234,-10.882812 a 21.465742,29.673231 0 0 1 -4.57617,2.43164 c 0.24367,1.963379 -0.39503,3.831588 -1.54297,5.107422 -1.45101,1.612676 -3.418,2.368847 -6.128905,1.210938 l -0.232422,-0.09961 -0.248047,-0.05078 c -1.794793,-0.367769 -2.172268,-0.828206 -2.488281,-1.453125 -0.316013,-0.624919 -0.453202,-1.81434 -0.371094,-3.390625 0.02232,-0.428569 0.0666,-0.925539 0.105469,-1.394531 a 21.465742,29.673231 0 0 1 -4.835938,-2.658203 z"
       id="vascular-neck"
       inkscape:connector-curvature="0" />
    <path
       inkscape:connector-curvature="0"
       d="m 111.58619,223.67517 c 0.46561,0.93451 0.46561,3.0819 2.149,4.76403 0.93519,-1.16914 2.85331,-4.52941 8.83461,-3.31653 5.98527,1.16913 11.45319,13.12691 3.6015,24.57169 -7.89941,11.4925 -22.71934,8.12826 -25.80349,-0.69989 -0.23481,-1.21288 -3.832336,-1.68212 -4.067109,1.91674 -0.234813,3.59887 -0.139304,4.06414 0.09153,5.23327 0.234773,1.21288 -4.114889,2.47745 -4.628231,0.23462 -1.400801,-3.55512 -0.465608,-9.11049 0.935193,-9.53202 -0.234812,-3.59886 4.767535,-5.23326 7.899417,-3.0819 1.91816,-1.16913 4.53272,0.23463 6.68569,1.68212 2.94489,1.96049 7.05974,-1.96048 5.23709,-7.42837 -0.9352,-2.85125 -3.83231,-7.65901 -4.30189,-13.36152 -0.23482,-1.91277 2.90109,-1.68213 3.36669,-0.98224 z"
       id="digestive"
       style="color:#000000;clip-rule:nonzero;display:inline;overflow:visible;visibility:visible;opacity:0.725;isolation:auto;mix-blend-mode:normal;color-interpolation:sRGB;color-interpolation-filters:linearRGB;solid-color:#000000;solid-opacity:1;fill:#729fcf;fill-opacity:1;fill-rule:nonzero;stroke:#0000ff;stroke-width:1;stroke-linecap:butt;stroke-linejoin:miter;stroke-miterlimit:4;stroke-dasharray:none;stroke-dashoffset:0;stroke-opacity:1;color-rendering:auto;image-rendering:auto;shape-rendering:auto;text-rendering:auto;enable-background:accumulate" />
    <path
       sodipodi:type="star"
       style="color:#000000;clip-rule:nonzero;display:inline;overflow:visible;visibility:visible;opacity:0.725;isolation:auto;mix-blend-mode:normal;color-interpolation:sRGB;color-interpolation-filters:linearRGB;solid-color:#000000;solid-opacity:1;fill:#729fcf;fill-opacity:1;fill-rule:nonzero;stroke:#0000ff;stroke-width:1;stroke-linecap:butt;stroke-linejoin:miter;stroke-miterlimit:4;stroke-dasharray:none;stroke-dashoffset:0;stroke-opacity:1;color-rendering:auto;image-rendering:auto;shape-rendering:auto;text-rendering:auto;enable-background:accumulate"
       id="nose"
       sodipodi:sides="3"
       sodipodi:cx="99.642853"
       sodipodi:cy="61.071426"
       sodipodi:r1="10.875279"
       sodipodi:r2="5.4376392"
       sodipodi:arg1="0.52359878"
       sodipodi:arg2="1.5707963"
       inkscape:flatsided="true"
       inkscape:rounded="0"
       inkscape:randomized="0"
       d="m 109.06112,66.509066 -18.836535,0 9.418268,-16.312919 z"
       inkscape:transform-center-y="-1.8797332"
       transform="matrix(0.64204199,0,0,0.6913783,36.025105,16.324582)" />
    <ellipse
       style="color:#000000;clip-rule:nonzero;display:inline;overflow:visible;visibility:visible;opacity:0.725;isolation:auto;mix-blend-mode:normal;color-interpolation:sRGB;color-interpolation-filters:linearRGB;solid-color:#000000;solid-opacity:1;fill:#729fcf;fill-opacity:1;fill-rule:nonzero;stroke:#0000ff;stroke-width:1;stroke-linecap:butt;stroke-linejoin:miter;stroke-miterlimit:4;stroke-dasharray:none;stroke-dashoffset:0;stroke-opacity:1;color-rendering:auto;image-rendering:auto;shape-rendering:auto;text-rendering:auto;enable-background:accumulate"
       id="ear-left"
       cx="127.41072"
       cy="46.339287"
       rx="2.9464283"
       ry="7.5892854" />
    <ellipse
       style="color:#000000;clip-rule:nonzero;display:inline;overflow:visible;visibility:visible;opacity:0.725;isolation:auto;mix-blend-mode:normal;color-interpolation:sRGB;color-interpolation-filters:linearRGB;solid-color:#000000;solid-opacity:1;fill:#729fcf;fill-opacity:1;fill-rule:nonzero;stroke:#0000ff;stroke-width:1;stroke-linecap:butt;stroke-linejoin:miter;stroke-miterlimit:4;stroke-dasharray:none;stroke-dashoffset:0;stroke-opacity:1;color-rendering:auto;image-rendering:auto;shape-rendering:auto;text-rendering:auto;enable-background:accumulate"
       id="ear-right"
       cx="73.035713"
       cy="46.428574"
       rx="2.9464283"
       ry="7.5892854" />
  </g>
</svg>
